<?xml version="1.0" standalone="no"?>
<!DOCTYPE svg PUBLIC "-//W3C//DTD SVG 20010904//EN"
 "http://www.w3.org/TR/2001/REC-SVG-20010904/DTD/svg10.dtd">
<svg version="1.0" xmlns="http://www.w3.org/2000/svg"
 width="300.000000pt" height="300.000000pt" viewBox="0 0 300.000000 300.000000"
 preserveAspectRatio="xMidYMid meet">
<metadata>
Created by potrace 1.11, written by Peter Selinger 2001-2013
</metadata>
<g transform="translate(0.000000,300.000000) scale(0.100000,-0.100000)"
fill="#000000" stroke="none">
<path d="M1469 2946 c-15 -7 -96 -54 -180 -103 -162 -95 -622 -359 -699 -401
-25 -14 -49 -28 -55 -32 -5 -4 -32 -20 -60 -35 -127 -69 -207 -121 -222 -144
-15 -23 -16 -91 -16 -727 0 -652 1 -703 18 -731 9 -16 25 -34 34 -40 25 -16
479 -276 546 -313 33 -18 76 -43 95 -55 19 -12 42 -25 50 -28 8 -4 29 -16 46
-26 43 -26 414 -241 442 -256 55 -30 86 -16 519 233 230 131 438 250 463 264
179 100 318 182 333 196 11 9 23 27 28 39 4 12 9 334 10 715 1 540 -2 699 -12
720 -15 35 -44 53 -374 238 -22 12 -92 52 -155 88 -63 36 -131 74 -150 85 -19
10 -152 86 -296 168 -272 156 -314 173 -365 145z m164 -152 c34 -20 82 -48
107 -62 25 -14 113 -64 195 -112 83 -48 247 -143 365 -210 270 -154 264 -151
332 -189 32 -18 61 -37 64 -43 8 -13 8 -1343 1 -1356 -5 -7 -142 -87 -322
-188 -34 -19 -482 -277 -648 -373 -87 -50 -160 -91 -163 -91 -2 0 -4 599 -4
1330 0 732 3 1330 6 1330 3 0 33 -16 67 -36z m-173 -1295 l0 -1321 -57 33
c-32 17 -73 40 -90 51 -18 10 -50 28 -70 39 -21 12 -110 63 -198 114 -405 235
-688 395 -696 395 -11 0 -10 -49 -11 718 0 534 2 646 13 656 19 17 509 296
520 296 5 0 9 5 9 10 0 6 4 10 9 10 5 0 132 72 282 159 151 88 277 160 282
160 4 1 7 -593 7 -1320z"/>
<path d="M2140 1950 l0 -250 -42 5 c-24 3 -68 7 -98 10 -30 2 -91 7 -135 11
-44 4 -100 8 -125 8 l-45 1 0 -203 0 -203 150 6 c82 3 183 8 223 11 l72 5 0
-245 0 -244 118 51 c64 28 118 52 120 53 2 1 6 92 9 201 3 109 6 199 6 200 2
2 63 11 127 18 25 3 54 7 65 10 11 2 28 4 38 4 15 1 17 14 17 126 l0 125 -42
1 c-44 2 -89 6 -143 13 -16 2 -40 4 -51 5 -21 1 -22 4 -21 204 l1 202 -109 57
c-60 32 -115 60 -122 62 -10 4 -13 -45 -13 -244z"/>
<path d="M1191 2322 l-94 -57 -104 -265 c-57 -146 -106 -269 -108 -275 -2 -5
-19 -52 -38 -104 l-35 -93 -15 48 c-20 65 -37 123 -101 349 -30 105 -58 189
-62 188 -5 -1 -53 -22 -107 -47 l-97 -45 2 -508 3 -508 78 -53 c72 -50 77 -52
78 -30 0 13 1 182 1 375 1 194 4 351 6 348 2 -2 33 -93 69 -202 36 -109 70
-204 77 -210 6 -7 38 -14 70 -15 l59 -3 112 217 c61 120 114 220 117 223 3 3
7 -83 8 -192 7 -761 7 -764 21 -777 8 -7 49 -32 92 -55 l77 -42 0 895 c0 493
-3 896 -7 896 -5 0 -50 -26 -102 -58z"/>
</g>
</svg>
